<svg id="visual" viewBox="0 0 900 600" width="900" height="600" xmlns="http://www.w3.org/2000/svg" xmlns:xlink="http://www.w3.org/1999/xlink" version="1.1"><rect x="0" y="0" width="900" height="600" fill="#f1f1f1"></rect><g transform="translate(857.9175954808952 -35.29676968447686)"><path d="M259.8 -317.7C341.2 -298.3 415 -228.6 450.4 -141.3C485.7 -54 482.5 50.9 452.5 148.1C422.4 245.4 365.5 335.1 285.6 372.9C205.7 410.8 102.9 396.9 25.7 361.5C-51.4 326.1 -102.9 269.3 -173.9 228.5C-244.9 187.7 -335.5 163.1 -371.6 107.6C-407.7 52.1 -389.3 -34.2 -363.5 -119.6C-337.8 -204.9 -304.7 -289.3 -242.9 -315.1C-181 -340.8 -90.5 -307.9 -0.7 -307C89.1 -306 178.3 -337.1 259.8 -317.7" fill="#54C483"></path></g></svg>