<svg id="visual" viewBox="0 0 900 600" width="900" height="600" xmlns="http://www.w3.org/2000/svg" xmlns:xlink="http://www.w3.org/1999/xlink" version="1.1"><rect x="0" y="0" width="900" height="600" fill="#f1f1f1"></rect><g transform="translate(967.7760120992976 -52.94268753398504)"><path d="M373.7 -426.6C393.9 -428.4 257.5 -224.9 276.5 -57.6C295.5 109.8 469.9 240.9 488.8 351.7C507.6 462.6 371 553.1 250 528.4C129.1 503.7 23.8 363.7 -116.1 314.6C-256.1 265.6 -430.7 307.5 -532.8 249.9C-635 192.2 -664.6 34.9 -563.8 -23.4C-462.9 -81.6 -231.4 -40.8 -115.7 -22.1C0 -3.3 0 -6.7 88.4 -112C176.8 -217.3 353.5 -424.7 373.7 -426.6" fill="#54c483"></path></g></svg>