<svg id="visual" viewBox="0 0 900 600" width="900" height="600" xmlns="http://www.w3.org/2000/svg" xmlns:xlink="http://www.w3.org/1999/xlink" version="1.1"><rect x="0" y="0" width="900" height="600" fill="#f1f1f1"></rect><g transform="translate(783.8562441626559 34.47660405878082)"><path d="M314.8 -425.8C400.3 -303.4 456.7 -196.9 516.1 -61.2C575.6 74.5 638.1 239.5 598.2 379.9C558.3 520.3 415.9 636 271.9 643.4C127.9 650.9 -17.8 550 -131.9 464.3C-246.1 378.6 -328.7 308.1 -352.3 224.2C-375.8 140.4 -340.2 43.4 -348.1 -87.3C-355.9 -217.9 -407.1 -382 -356.3 -510.6C-305.5 -639.1 -152.8 -732.1 -19.1 -709.3C114.6 -686.6 229.3 -548.2 314.8 -425.8" fill="#54c483"></path></g></svg>