<svg id="visual" viewBox="0 0 900 600" width="900" height="600" xmlns="http://www.w3.org/2000/svg" xmlns:xlink="http://www.w3.org/1999/xlink" version="1.1"><rect x="0" y="0" width="900" height="600" fill="#f1f1f1"></rect><g transform="translate(958.7285926681684 -91.84448013068075)"><path d="M366.3 -389.7C457.1 -360.4 500.8 -228.2 469.8 -124.3C438.7 -20.4 332.8 55.3 284.8 188.8C236.8 322.3 246.6 513.5 182.3 564.7C117.9 615.8 -20.7 526.9 -167 469.1C-313.2 411.4 -467.1 385 -543.4 293.8C-619.8 202.7 -618.6 46.9 -515.1 -12.8C-411.7 -72.6 -205.8 -36.3 -102.9 -63.5C0 -90.7 0 -181.3 68.9 -263.4C137.8 -345.5 275.5 -419 366.3 -389.7" fill="#54c483"></path></g></svg>