<svg id="visual" viewBox="0 0 900 600" width="900" height="600" xmlns="http://www.w3.org/2000/svg" xmlns:xlink="http://www.w3.org/1999/xlink" version="1.1"><rect x="0" y="0" width="900" height="600" fill="#fff"></rect><path d="M226 0L229.7 14.3C233.3 28.7 240.7 57.3 224.5 85.8C208.3 114.3 168.7 142.7 147.2 171.2C125.7 199.7 122.3 228.3 119.3 257C116.3 285.7 113.7 314.3 128.7 343C143.7 371.7 176.3 400.3 187 428.8C197.7 457.3 186.3 485.7 192.5 514.2C198.7 542.7 222.3 571.3 234.2 585.7L246 600L0 600L0 585.7C0 571.3 0 542.7 0 514.2C0 485.7 0 457.3 0 428.8C0 400.3 0 371.7 0 343C0 314.3 0 285.7 0 257C0 228.3 0 199.7 0 171.2C0 142.7 0 114.3 0 85.8C0 57.3 0 28.7 0 14.3L0 0Z" fill="#E62727" stroke-linecap="round" stroke-linejoin="miter"></path></svg>